<svg width="858" height="897" viewBox="0 0 858 897" fill="none" xmlns="http://www.w3.org/2000/svg">
<path d="M519.938 29.4263C518.633 32.1923 518.959 34.058 520.916 35.0234C616.993 83.2186 713.031 131.479 809.03 179.805C814.432 182.518 820.616 186.706 827.583 192.369C833.428 197.118 839.69 201.384 846.37 205.168C862.183 229.983 856.86 272.881 856.39 309.791C854.172 309.217 852.607 310.9 851.694 314.84C851.302 316.431 851.133 318.623 851.185 321.415C851.602 346.648 850.885 372.794 849.032 399.853C848.641 405.489 846.057 406.794 841.282 403.767L835.803 400.284C834.628 399.553 833.78 398.535 833.258 397.231C828.561 385.606 815.528 380.948 802.533 375.743C802.011 375.56 801.75 375.181 801.75 374.607C801.75 374.268 801.75 373.916 801.75 373.551C801.749 373.199 801.636 372.858 801.431 372.582C801.226 372.306 800.939 372.11 800.615 372.024C793.061 369.793 790.673 364.744 786.094 360.478C765.154 340.868 748.284 317.697 716.502 320.906C715.145 321.063 714.206 320.502 713.684 319.223C705.125 297.618 690.408 281.57 669.533 271.08C590.365 231.34 511.705 191.416 433.554 151.31L431.088 2.49757C461.266 -6.11336 493.518 15.2966 519.938 29.4263Z" fill="#1B2952"/>
<path d="M485.063 181.918L549.489 214.444C556.5 217.5 670.821 276.543 674.5 278.5C712.675 298.618 695 295.035 706.756 309.5C706.756 317.5 711.085 307.46 718 327.5C718.143 327.907 703.067 324.242 703.432 324.464C703.797 324.686 704.225 324.77 704.642 324.703C705.477 324.599 705.869 324.925 705.816 325.682C705.686 328.343 705.999 328.108 706.756 324.977C706.938 324.22 707.239 323.803 707.656 323.725C714.075 355.311 710.983 401.301 710.709 460.326C702.842 458.29 695.366 457.938 688.399 453.358C669.324 440.781 649.624 429.261 629.297 418.797C623.386 415.783 619.746 409.521 611.566 408.542C610.287 408.412 609.178 407.903 608.239 407.016C604.612 403.572 600.137 403.298 594.814 406.194C588.786 382.592 577.279 371.398 554.538 359.891C515.632 340.19 477.144 319.967 439.073 299.223C438.603 298.57 438.173 298.205 437.781 298.127C437.521 297.266 437.547 296.509 437.86 295.857C437.985 295.597 438.165 295.368 438.386 295.183C438.607 294.998 438.865 294.862 439.142 294.785C439.42 294.707 439.711 294.689 439.996 294.732C440.281 294.775 440.553 294.878 440.795 295.035C447.88 299.497 470.425 315.544 479.388 315.427C480.667 315.401 481.528 314.788 481.971 313.587C485.65 303.88 484.515 293.312 485.455 285.484C489.095 255.15 484.907 221.92 497.745 193.66C498.345 192.304 497.941 191.429 496.531 191.038C487.947 188.768 484.124 185.728 485.063 181.918Z" fill="#F322F8"/>
<path d="M431.088 2.49756L433.554 151.31C433.293 148.101 433.645 149.484 434.611 155.459C433.489 155.642 432.902 156.268 432.85 157.338C431.101 198.879 431.166 244.491 433.045 294.174C428.427 307.912 424.669 330.379 411.087 337.15C350.067 367.601 288.695 397.426 228.183 428.896C215.267 435.628 201.985 442.008 188.338 448.035L187.046 359.695C187.229 294.2 187.32 227.726 187.32 160.273C187.281 125.947 208.143 110.213 238.869 94.8694C293.9 67.471 349.036 40.3074 404.277 13.3786C414.401 8.44693 423.338 4.8199 431.088 2.49756Z" fill="#432AAC"/>
<path d="M519.938 29.4263C610.613 74.7251 701.159 120.415 791.573 166.497C814.158 178.004 831.106 183.523 846.37 205.168C839.69 201.384 833.428 197.118 827.583 192.369C820.616 186.706 814.432 182.518 809.03 179.805C713.031 131.479 616.993 83.2186 520.916 35.0234C518.959 34.0579 518.633 32.1923 519.938 29.4263Z" fill="#0B172F"/>
<path d="M433.554 151.31C511.705 191.416 590.364 231.34 669.533 271.081C690.408 281.57 705.125 297.618 713.683 319.224C714.205 320.502 715.145 321.063 716.502 320.907C748.284 317.697 765.153 340.868 786.094 360.478C790.673 364.744 793.061 369.793 800.615 372.024C800.939 372.11 801.226 372.306 801.431 372.582C801.636 372.858 801.748 373.199 801.75 373.551C801.75 373.916 801.75 374.268 801.75 374.607C801.75 375.182 802.011 375.56 802.533 375.743C815.527 380.948 828.561 385.606 833.258 397.231C833.78 398.535 834.628 399.553 835.802 400.284L841.282 403.767C846.057 406.794 848.64 405.489 849.032 399.853C850.884 372.794 851.602 346.648 851.185 321.415C851.132 318.623 851.302 316.432 851.693 314.84C852.607 310.9 854.172 309.217 856.39 309.791C857.069 481.409 856.951 589.098 856.038 632.857C855.673 649.844 849.867 664.183 838.62 675.873C832.697 681.979 820.289 689.807 801.398 699.357C723.169 738.811 644.861 778.747 566.476 819.167C585.707 803.641 595.022 782.009 594.422 754.272C594.083 739.555 594.096 704.693 594.461 649.688C617.111 637.815 639.642 627.43 662.057 618.532C705.347 601.31 710.787 571.72 710.748 525.886C710.748 504.15 710.735 482.296 710.709 460.325C710.983 401.301 714.075 355.311 707.656 323.725C701.158 301.336 687.551 285.015 666.832 274.76C627.457 255.268 588.342 235.162 549.488 214.444L485.063 181.918L434.611 155.459C433.645 149.484 433.293 148.101 433.554 151.31Z" fill="#0B172F"/>
<path d="M434.611 155.459L485.063 181.918C484.124 185.728 487.946 188.768 496.531 191.038C497.94 191.429 498.345 192.304 497.745 193.66C484.906 221.92 489.095 255.15 485.455 285.484C484.515 293.312 485.65 303.88 481.971 313.587C481.527 314.788 480.666 315.401 479.388 315.427C470.425 315.544 447.88 299.497 440.795 295.035C440.553 294.878 440.28 294.775 439.995 294.732C439.711 294.689 439.42 294.707 439.142 294.785C438.865 294.862 438.607 294.998 438.386 295.183C438.165 295.368 437.985 295.597 437.86 295.857C437.546 296.509 437.52 297.266 437.781 298.127C435.772 297.292 434.193 295.974 433.045 294.174C431.166 244.491 431.101 198.879 432.85 157.338C432.902 156.268 433.489 155.642 434.611 155.459Z" fill="#F322F8"/>
<path d="M433.045 294.174C434.193 295.974 435.772 297.292 437.781 298.127C438.173 298.205 438.603 298.57 439.073 299.223C430.775 309.66 427.526 320.698 429.327 332.336C431.023 343.034 431.871 349.166 431.871 350.732C432.654 404.772 430.266 458.695 424.708 512.5C423.886 520.289 426.665 532.423 426.626 541.581C426.339 599.744 426.587 657.907 427.37 716.07C427.422 719.75 425.896 722.255 422.79 723.585L342.161 683.74C314.788 669.884 277.252 651.88 229.553 629.726C218.046 624.377 208.287 616.51 200.276 606.124C192.265 592.19 188.247 578.282 188.221 564.4C188.168 523.929 188.208 485.141 188.338 448.035C201.985 442.008 215.267 435.628 228.183 428.896C288.695 397.426 350.067 367.601 411.087 337.15C424.669 330.379 428.427 307.912 433.045 294.174Z" fill="#1B2952"/>
<path d="M439.073 299.223C477.144 319.967 515.632 340.19 554.538 359.891C577.279 371.398 588.786 382.592 594.814 406.194L594.461 649.688C594.096 704.693 594.083 739.555 594.422 754.272C595.022 782.009 585.707 803.641 566.476 819.167L427.096 891.89C430.775 837.432 431.871 782.27 430.384 726.404C430.358 725.099 429.692 724.381 428.388 724.251L422.791 723.585C425.896 722.255 427.422 719.75 427.37 716.07C426.587 657.907 426.339 599.744 426.626 541.581C426.665 532.423 423.886 520.289 424.708 512.5C430.266 458.695 432.654 404.772 431.871 350.732C431.871 349.166 431.023 343.034 429.327 332.336C427.527 320.698 430.775 309.66 439.073 299.223Z" fill="#0F2765"/>
<path d="M187.047 359.695L188.338 448.035C188.208 485.141 188.169 523.929 188.221 564.4C188.247 578.282 192.265 592.19 200.276 606.124C197.067 606.959 193.961 606.229 190.961 603.932C189.969 603.176 189.382 603.424 189.199 604.676L188.964 606.477C188.967 606.502 188.965 606.528 188.957 606.553C188.95 606.578 188.937 606.601 188.921 606.621C188.905 606.641 188.885 606.657 188.862 606.669C188.839 606.682 188.814 606.689 188.788 606.692C188.763 606.694 188.737 606.692 188.712 606.684C188.687 606.677 188.664 606.665 188.644 606.648C188.624 606.632 188.608 606.612 188.595 606.589C188.583 606.566 188.576 606.541 188.573 606.516C188.469 606.229 188.364 605.915 188.26 605.576C188.051 604.82 187.738 604.78 187.321 605.459L186.655 606.594C186.561 606.75 186.407 606.863 186.224 606.906C186.041 606.95 185.845 606.922 185.677 606.829C171.116 598.414 159.257 614.735 154.325 626.125C153.855 627.247 153.712 628.408 153.894 629.609C157.3 650.784 132.563 670.08 112.993 688.75C112.019 689.673 111.303 690.848 110.918 692.155C109.848 695.939 107.395 697.374 103.56 696.461C102.994 696.32 102.397 696.357 101.845 696.566C101.294 696.776 100.814 697.148 100.468 697.635L94.479 706.089C93.644 707.238 93.7875 708.268 94.9096 709.181L99.7238 712.978C100.95 713.97 101.107 715.092 100.194 716.344C97.7668 719.736 96.71 723.442 97.0231 727.46C97.0669 728.085 96.8984 728.706 96.5448 729.223C96.1912 729.74 95.6734 730.123 95.0753 730.308C94.4772 730.494 93.8338 730.472 93.2496 730.247C92.6654 730.021 92.1745 729.605 91.8566 729.065L90.0952 726.012C89.4951 724.994 88.634 724.655 87.512 724.994C82.7368 726.364 81.132 732.235 84.3807 736.345C85.4506 737.676 85.1244 738.276 83.4022 738.146C68.9463 736.919 55.6515 732.47 43.5179 724.799C42.3959 724.094 41.1694 723.664 39.8387 723.507C34.5677 722.907 27.979 720.506 20.0726 716.305C4.25982 702.841 0.580604 685.11 0.502323 663.191C0.267479 614.787 0.241429 566.292 0.424085 517.706C0.619788 460.795 10.5224 452.458 56.0821 428.308C98.8236 405.685 142.478 382.814 187.047 359.695Z" fill="#21C1E9"/>
<path d="M710.709 460.325C710.735 482.296 710.748 504.15 710.748 525.886C710.787 571.72 705.347 601.31 662.057 618.532C639.643 627.43 617.111 637.815 594.461 649.688L594.814 406.194C600.137 403.298 604.612 403.572 608.239 407.016C609.178 407.903 610.287 408.412 611.566 408.542C619.746 409.521 623.386 415.783 629.297 418.797C649.624 429.261 669.324 440.781 688.399 453.358C695.366 457.938 702.842 458.29 710.709 460.325Z" fill="#F322F8"/>
<path d="M200.276 606.124C208.287 616.51 218.046 624.377 229.553 629.726C277.253 651.88 314.789 669.884 342.161 683.74H322.825C322.017 683.74 321.821 684.079 322.238 684.758L322.825 685.775C323.269 686.506 323.086 687.041 322.278 687.38C318.807 688.868 315.245 689.402 311.592 688.985C310.38 688.835 309.145 689.126 308.109 689.807C306.099 691.19 304.325 691.164 302.786 689.729C301.429 688.502 300.75 688.802 300.75 690.629V693.525C300.75 694.908 300.176 696.017 299.028 696.852C294.983 699.749 294.005 703.454 296.092 707.968C296.42 708.704 296.489 709.531 296.288 710.317L293.822 719.006C293.405 720.441 293.731 720.637 294.801 719.593L297.032 717.323C297.393 716.942 297.879 716.708 298.398 716.665C298.918 716.622 299.436 716.772 299.857 717.088C300.277 717.403 300.572 717.863 300.686 718.381C300.8 718.9 300.725 719.441 300.476 719.906C294.096 731.727 295.349 741.433 287.912 752.432C287.743 752.685 287.637 752.975 287.605 753.277C287.573 753.579 287.615 753.884 287.727 754.163C287.84 754.442 288.019 754.688 288.25 754.877C288.48 755.067 288.754 755.195 289.047 755.25C291.63 755.798 293.026 757.233 293.235 759.555C293.392 761.304 292.557 763.339 290.73 765.661C288.277 768.767 285.812 771.859 283.333 774.938C281.924 776.712 281.663 778.265 282.55 779.596C283.15 780.509 283.033 781.318 282.198 782.022C274.369 788.702 273.691 796.1 280.162 804.215C280.723 804.917 281.034 805.786 281.045 806.684C281.055 807.583 280.766 808.459 280.221 809.174C279.677 809.889 278.91 810.402 278.041 810.631C277.172 810.86 276.252 810.792 275.426 810.438C274.356 809.969 273.339 809.838 272.373 810.047C271.983 810.124 271.614 810.284 271.292 810.518C270.97 810.752 270.701 811.053 270.504 811.402C270.308 811.751 270.188 812.139 270.152 812.54C270.117 812.941 270.167 813.345 270.299 813.726C271.995 818.553 271.93 823.42 270.103 828.326C269.712 829.395 268.942 829.891 267.794 829.813L258.243 829.226C256.443 829.121 255.295 828.208 254.799 826.486C254.329 824.868 253.455 823.929 252.177 823.668C251.935 823.596 251.682 823.572 251.431 823.598C251.18 823.624 250.937 823.699 250.715 823.819C250.494 823.939 250.298 824.101 250.139 824.297C249.98 824.493 249.861 824.718 249.789 824.959C249.717 825.201 249.693 825.454 249.719 825.705C249.745 825.956 249.82 826.199 249.94 826.421C250.06 826.643 250.223 826.838 250.418 826.997C250.614 827.156 250.839 827.275 251.081 827.347L270.573 835.253C271.956 835.828 273.013 836.767 273.743 838.072C275.126 840.577 277.214 841.659 280.006 841.32C280.389 841.269 280.769 841.324 281.102 841.477L353.942 877.095C356.265 878.243 356.147 879 353.59 879.365L350.537 879.795C242.039 827.843 133.946 775.003 26.257 721.276C24.7696 720.519 22.7082 718.862 20.0728 716.305C27.9792 720.506 34.5678 722.907 39.8388 723.507C41.1696 723.664 42.396 724.094 43.518 724.799C55.6516 732.47 68.9464 736.919 83.4023 738.146C85.1245 738.276 85.4507 737.676 84.3808 736.345C81.1322 732.235 82.7369 726.364 87.5121 724.994C88.6341 724.655 89.4952 724.994 90.0953 726.012L91.8567 729.065C92.1746 729.605 92.6655 730.021 93.2497 730.247C93.8339 730.472 94.4773 730.494 95.0754 730.308C95.6735 730.123 96.1913 729.74 96.5449 729.223C96.8985 728.706 97.067 728.085 97.0232 727.46C96.7101 723.442 97.7669 719.736 100.194 716.344C101.107 715.092 100.95 713.97 99.7239 712.978L94.9097 709.181C93.7876 708.268 93.6441 707.238 94.4791 706.089L100.468 697.635C100.814 697.148 101.294 696.776 101.845 696.566C102.397 696.357 102.994 696.32 103.56 696.461C107.395 697.374 109.848 695.939 110.918 692.155C111.303 690.848 112.019 689.673 112.993 688.75C132.563 670.08 157.3 650.784 153.895 629.609C153.712 628.408 153.855 627.247 154.325 626.125C159.257 614.735 171.116 598.414 185.677 606.829C185.845 606.922 186.042 606.95 186.224 606.906C186.407 606.862 186.561 606.75 186.655 606.594L187.321 605.459C187.738 604.78 188.051 604.819 188.26 605.576C188.364 605.915 188.469 606.229 188.573 606.516C188.576 606.541 188.583 606.566 188.596 606.589C188.608 606.612 188.624 606.632 188.644 606.648C188.664 606.665 188.687 606.677 188.712 606.684C188.737 606.692 188.763 606.694 188.788 606.692C188.814 606.689 188.839 606.682 188.862 606.669C188.885 606.657 188.905 606.641 188.921 606.621C188.937 606.601 188.95 606.578 188.957 606.553C188.965 606.528 188.967 606.502 188.965 606.476L189.199 604.676C189.382 603.424 189.969 603.176 190.961 603.932C193.962 606.229 197.067 606.959 200.276 606.124Z" fill="#21C1E9"/>
<path d="M342.161 683.74L422.79 723.585L428.387 724.251C429.692 724.381 430.358 725.099 430.384 726.403C431.871 782.27 430.775 837.432 427.096 891.89C398.641 901.793 375.861 894.043 350.537 879.795L353.59 879.365C356.147 879 356.264 878.243 353.942 877.095L281.101 841.477C280.769 841.324 280.388 841.269 280.005 841.32C277.213 841.66 275.126 840.577 273.743 838.072C273.012 836.767 271.955 835.828 270.572 835.254L251.08 827.347C250.839 827.275 250.614 827.156 250.418 826.997C250.223 826.838 250.06 826.643 249.94 826.421C249.82 826.199 249.745 825.956 249.719 825.705C249.693 825.455 249.717 825.201 249.789 824.96C249.861 824.718 249.98 824.493 250.139 824.297C250.298 824.102 250.493 823.939 250.715 823.819C250.937 823.699 251.18 823.624 251.431 823.598C251.681 823.572 251.935 823.596 252.176 823.668C253.455 823.929 254.329 824.868 254.799 826.486C255.295 828.208 256.443 829.121 258.243 829.226L267.794 829.813C268.942 829.891 269.711 829.395 270.103 828.326C271.929 823.42 271.995 818.554 270.299 813.726C270.167 813.345 270.117 812.941 270.152 812.54C270.188 812.139 270.308 811.751 270.504 811.402C270.701 811.053 270.969 810.752 271.292 810.518C271.614 810.285 271.983 810.124 272.373 810.047C273.338 809.838 274.356 809.969 275.426 810.438C276.252 810.792 277.172 810.86 278.041 810.631C278.91 810.402 279.677 809.889 280.221 809.174C280.765 808.459 281.055 807.583 281.044 806.684C281.034 805.786 280.723 804.917 280.162 804.215C273.691 796.1 274.369 788.702 282.197 782.022C283.032 781.318 283.15 780.509 282.55 779.596C281.662 778.265 281.923 776.712 283.332 774.938C285.811 771.859 288.277 768.767 290.73 765.662C292.557 763.339 293.392 761.304 293.235 759.555C293.026 757.233 291.63 755.798 289.047 755.25C288.754 755.195 288.48 755.067 288.25 754.877C288.019 754.688 287.84 754.442 287.727 754.163C287.615 753.884 287.573 753.579 287.605 753.277C287.637 752.975 287.743 752.685 287.912 752.432C295.349 741.433 294.096 731.727 300.476 719.906C300.725 719.441 300.8 718.9 300.686 718.381C300.572 717.863 300.277 717.403 299.856 717.088C299.436 716.772 298.917 716.622 298.398 716.665C297.878 716.709 297.393 716.942 297.032 717.323L294.801 719.593C293.731 720.637 293.405 720.441 293.822 719.006L296.288 710.317C296.489 709.531 296.42 708.704 296.092 707.968C294.005 703.454 294.983 699.749 299.028 696.852C300.176 696.017 300.75 694.908 300.75 693.525V690.629C300.75 688.802 301.428 688.502 302.785 689.729C304.325 691.164 306.099 691.19 308.108 689.807C309.145 689.126 310.379 688.835 311.592 688.985C315.245 689.402 318.807 688.868 322.277 687.38C323.086 687.041 323.269 686.506 322.825 685.776L322.238 684.758C321.821 684.079 322.016 683.74 322.825 683.74H342.161Z" fill="#21C1E9"/>
</svg>
